PathFileType	4	(X/Y/Z)	/Volumes/GoogleDrive/My Drive/Research/Stanford/Projects/Digital Athlete Project/Sprinting/Sprint Simulation/sprinter/subjects/JA1/experimental_data/TRC/run0500cms.trc
DataRate	CameraRate	NumFrames	NumMarkers	Units	OrigDataRate	OrigDataStartFrame	OrigNumFrames
250.000000	250.000000	4	53	mm	250.000000	72	569
Frame#	Time	C7			RSH			LSH			MAN			T7			LARM			LELB			LFOREARM			LWR			RARM			RELB			RFOREARM			RWR			RASI			LASI			SACR			P1			P2			P3			LTHLP			LTHLD			LTHAP			LLEPI			LPAT			LTIAP			LTIAD			LTILAT			LLMAL			LHEEL			LMFS			LMFL			LP1MT			LTOE			LP5MT			RTHLP			RTHLD			RTHAP			RTHAD			RLEPI			RPAT			RTIAP			RTIAD			RTILAT			RLMAL			RHEEL			RMFS			RMFL			RP1MT			RTOE			RP5MT			LTHAD			x52			x53			
		X1	Y1	Z1	X2	Y2	Z2	X3	Y3	Z3	X4	Y4	Z4	X5	Y5	Z5	X6	Y6	Z6	X7	Y7	Z7	X8	Y8	Z8	X9	Y9	Z9	X10	Y10	Z10	X11	Y11	Z11	X12	Y12	Z12	X13	Y13	Z13	X14	Y14	Z14	X15	Y15	Z15	X16	Y16	Z16	X17	Y17	Z17	X18	Y18	Z18	X19	Y19	Z19	X20	Y20	Z20	X21	Y21	Z21	X22	Y22	Z22	X23	Y23	Z23	X24	Y24	Z24	X25	Y25	Z25	X26	Y26	Z26	X27	Y27	Z27	X28	Y28	Z28	X29	Y29	Z29	X30	Y30	Z30	X31	Y31	Z31	X32	Y32	Z32	X33	Y33	Z33	X34	Y34	Z34	X35	Y35	Z35	X36	Y36	Z36	X37	Y37	Z37	X38	Y38	Z38	X39	Y39	Z39	X40	Y40	Z40	X41	Y41	Z41	X42	Y42	Z42	X43	Y43	Z43	X44	Y44	Z44	X45	Y45	Z45	X46	Y46	Z46	X47	Y47	Z47	X48	Y48	Z48	X49	Y49	Z49	X50	Y50	Z50	X51	Y51	Z51	X52	Y52	Z52	X53	Y53	Z53	
72	0.288000	-4099.504395	1566.983521	156.228256	-4043.002686	1560.284912	305.115173	-4101.421387	1561.092163	-8.894874	-3961.602539	1476.628906	120.783669	-4159.325195	1376.156982	166.040283	-4242.283203	1448.003296	-80.944672	-4354.739258	1364.764771	-101.076164	-4335.805664	1215.156250	-104.865753	-4333.104492	1084.541992	-99.152679	-4003.484863	1390.814331	411.398621	-3977.680664	1265.675781	468.102386	-3891.728760	1341.973389	389.014130	-3814.536621	1411.059937	318.549286	-3966.966553	1067.740845	233.263718	-3991.031982	1090.013184	23.414268	-4152.901855	1146.115234	153.279739	-4171.793945	1116.825806	101.259972	-4160.280762	1118.886963	207.782623	-4199.772949	1066.185547	157.512772	-3938.132080	839.626587	-34.833611	-3860.301758	759.949219	-14.406263	-3840.620117	916.558105	37.757557	-3790.433838	667.731140	12.216103	-3707.305664	715.327576	69.137810	-3736.580078	505.949585	93.428528	-3730.436279	366.888184	103.629745	-3772.038330	427.036774	22.465933	-3746.081543	211.746902	63.551834	-3808.939697	177.824753	113.878883	-3642.573975	214.888000	116.493370	-3669.907959	178.691711	57.983761	-3579.762939	167.724121	154.868484	-3552.249512	184.322418	115.199234	-3604.791260	141.491043	36.295189	-4162.279785	832.144897	314.297058	-4212.178711	733.198914	289.701813	-4071.554688	764.365540	223.071075	-4130.170410	683.846436	202.840118	-4305.290039	620.115051	250.614487	-4239.251465	558.922058	196.149445	-4474.908203	485.332520	166.592010	-4586.828125	428.772217	149.408981	-4511.296387	518.268433	242.678772	-4711.067871	387.161926	201.831528	-4751.854492	448.945709	155.386230	-4688.263672	285.560669	146.698547	-4739.706543	310.546906	196.751740	-4725.599609	223.965439	87.042397	-4708.675781	198.708206	125.774498	-4769.857422	227.948013	204.687347	-3771.425293	828.643799	46.345165	-3771.367920	1449.695557	279.142853	-4331.731934	1018.157227	-96.249008
73	0.292000	-4078.217773	1567.673462	156.229630	-4022.001465	1560.809692	305.077881	-4080.569580	1561.669312	-8.874959	-3940.686523	1477.226929	120.654793	-4138.407715	1376.750122	165.859055	-4220.248535	1448.711914	-80.633141	-4334.515137	1365.906372	-99.988953	-4315.640137	1216.111694	-103.998085	-4312.798828	1085.472290	-98.272827	-3983.038574	1391.003418	411.134369	-3958.015137	1265.568359	467.935547	-3872.229980	1342.138672	388.761963	-3795.238281	1411.539307	318.648315	-3945.830811	1068.496704	233.632690	-3970.083740	1090.828979	24.098656	-4131.626953	1146.336914	153.432053	-4151.010254	1117.007446	101.541725	-4139.391602	1118.982300	207.954544	-4178.642578	1066.109009	157.640671	-3919.118652	837.532776	-35.877560	-3843.439941	755.892517	-15.023336	-3821.742188	911.036011	39.153400	-3774.005615	662.223633	12.477900	-3691.395264	709.881958	69.734154	-3715.481445	501.945831	94.615067	-3703.308105	363.454742	104.949020	-3745.773438	421.654144	22.874554	-3712.045898	208.150726	64.021019	-3774.038330	171.765213	113.696251	-3609.307861	215.150574	118.186607	-3634.413818	177.353867	59.686386	-3545.162598	170.923782	157.918625	-3517.971680	188.444336	118.614090	-3568.015137	142.538452	39.325253	-4139.983887	832.124207	314.022583	-4189.483398	733.061157	289.495209	-4049.372559	764.241333	222.622284	-4107.623047	683.165588	203.004364	-4282.367676	620.291809	249.868240	-4217.182617	557.170227	196.223007	-4455.738281	489.891785	166.671188	-4568.311035	437.694672	148.720856	-4491.305176	524.600647	242.376968	-4695.201660	399.273224	202.207260	-4734.888672	461.665131	155.286560	-4673.849609	297.105225	148.139679	-4725.190918	323.306000	197.991898	-4710.668457	235.891495	89.219131	-4695.269043	210.282288	127.745377	-4756.397949	241.310944	206.181839	-3754.300781	822.070435	48.145100	-3752.181885	1450.350586	279.438293	-4311.354492	1019.074829	-95.362961
74	0.296000	-4057.568848	1568.187500	156.116837	-4001.015625	1561.209717	305.012848	-4059.666260	1562.035522	-8.954193	-3919.903564	1477.722778	120.612129	-4118.035156	1377.280396	165.834808	-4199.582031	1449.142090	-79.982262	-4314.000000	1366.545532	-99.086281	-4295.008301	1216.755859	-103.248772	-4292.260254	1086.137451	-97.481842	-3962.885254	1391.095093	410.948822	-3938.796875	1265.384277	467.704163	-3852.735352	1341.773804	388.574921	-3775.727539	1411.173096	318.698425	-3924.586670	1069.305664	233.998077	-3949.171875	1091.525757	24.847973	-4111.024414	1146.281250	153.701706	-4130.263184	1117.026001	101.711693	-4118.433105	1119.002441	208.237930	-4157.259277	1065.782593	157.739258	-3900.628418	835.010681	-37.594002	-3826.692139	751.401672	-15.848459	-3802.860596	905.635254	40.456528	-3757.692627	656.640442	12.893608	-3675.350098	703.888672	70.456879	-3695.084473	497.927338	95.461639	-3677.435303	360.217712	105.998833	-3720.351807	416.740662	23.214319	-3679.416992	204.453644	65.209953	-3740.369141	166.537415	113.792755	-3577.340332	215.721680	119.885010	-3600.485352	176.508438	61.211361	-3512.364258	174.289215	160.905273	-3485.420166	192.887634	121.655159	-3532.301758	143.864990	42.334148	-4117.616699	831.955811	313.724121	-4166.732910	732.655823	289.222504	-4026.474854	764.392273	222.593948	-4084.023926	682.538269	203.341370	-4259.131348	620.057922	249.193283	-4194.853027	555.213440	196.389679	-4435.839844	493.990143	166.434280	-4550.455078	445.784241	149.054260	-4470.625977	530.817688	242.104370	-4678.740234	411.530609	202.566437	-4717.005859	474.432159	155.028564	-4658.757812	308.677704	150.252090	-4710.208496	336.358246	199.274292	-4695.982422	247.630661	91.367844	-4681.192871	222.294327	130.736816	-4742.772461	255.030167	207.888611	-3737.161133	815.488281	49.638229	-3732.662109	1449.983643	279.621002	-4290.863770	1019.750610	-94.550804
75	0.300000	-4036.302246	1568.508789	156.001114	-3980.031738	1561.436890	305.013977	-4038.705322	1562.253662	-9.016293	-3899.191895	1477.960083	120.556107	-4097.490723	1377.842407	165.746063	-4178.838867	1449.231812	-79.597153	-4293.282227	1366.865845	-98.236916	-4274.311523	1216.946411	-102.602966	-4271.335938	1086.382446	-96.842865	-3942.712158	1390.921509	410.683655	-3919.878174	1264.872559	467.510132	-3833.194824	1341.029175	388.701202	-3755.972900	1410.105835	318.941010	-3903.504395	1069.926392	234.567993	-3928.213135	1092.256226	25.532900	-4090.633057	1146.276855	154.054520	-4109.448730	1116.805786	102.002197	-4097.541504	1118.694214	208.463272	-4136.237305	1065.434448	158.012039	-3882.231445	831.979736	-39.056454	-3810.594238	746.298035	-16.974056	-3784.192383	900.092285	41.428452	-3741.131348	651.124634	13.045184	-3659.283936	697.724487	71.224922	-3674.687988	494.103851	96.595779	-3652.280273	357.371246	107.092476	-3696.545898	412.897278	23.719448	-3648.127930	201.728012	65.989655	-3708.211182	162.095917	113.923973	-3546.955322	216.801483	121.457611	-3568.146240	176.240356	63.038933	-3481.462646	177.979218	163.496231	-3454.463379	197.478439	124.450722	-3498.806396	145.414658	44.914738	-4095.271240	831.546143	313.404907	-4143.810547	732.014465	289.020721	-4003.089844	764.204834	223.102737	-4060.306641	681.730408	203.824997	-4235.490234	619.373047	248.418228	-4171.902344	552.879578	196.512665	-4415.278809	497.848755	166.063202	-4532.012695	453.776459	149.474594	-4449.385742	536.805420	241.825089	-4661.482910	423.910278	202.971039	-4698.364258	487.340851	154.660355	-4643.334473	320.379089	152.370667	-4694.515137	349.607330	200.715759	-4680.753418	259.338074	93.837280	-4668.233887	233.351898	133.519531	-4728.492676	269.108887	209.813217	-3720.437744	809.067749	50.989254	-3712.787842	1448.735962	279.928650	-4269.823730	1020.023315	-93.915298
